<?xml version="1.0" encoding="UTF-8"?>
<svg xmlns="http://www.w3.org/2000/svg" xmlns:xlink="http://www.w3.org/1999/xlink" width="375pt" height="374.999991pt" viewBox="0 0 375 374.999991" version="1.2">
<defs>
<filter id="alpha" filterUnits="objectBoundingBox" x="0%" y="0%" width="100%" height="100%">
  <feColorMatrix type="matrix" in="SourceGraphic" values="0 0 0 0 1 0 0 0 0 1 0 0 0 0 1 0 0 0 1 0"/>
</filter>
<mask id="mask0">
  <g filter="url(#alpha)">
<rect x="0" y="0" width="375" height="374.999991" style="fill:rgb(0%,0%,0%);fill-opacity:0.9765;stroke:none;"/>
  </g>
</mask>
<clipPath id="clip2">
  <path d="M 0.601562 11 L 284.519531 11 L 284.519531 338.25 L 0.601562 338.25 Z M 0.601562 11 "/>
</clipPath>
<clipPath id="clip3">
  <path d="M 90 0.75 L 196 0.75 L 196 295 L 90 295 Z M 90 0.75 "/>
</clipPath>
<clipPath id="clip4">
  <path d="M 90 0.75 L 196 0.75 L 196 60 L 90 60 Z M 90 0.75 "/>
</clipPath>
<clipPath id="clip5">
  <path d="M 0.601562 11 L 284.519531 11 L 284.519531 338.25 L 0.601562 338.25 Z M 0.601562 11 "/>
</clipPath>
<clipPath id="clip1">
  <rect x="0" y="0" width="285" height="339"/>
</clipPath>
<g id="surface5" clip-path="url(#clip1)">
<g clip-path="url(#clip2)" clip-rule="nonzero">
<path style=" stroke:none;fill-rule:nonzero;fill:rgb(54.899597%,35.289001%,25.099182%);fill-opacity:1;" d="M 268.496094 112.910156 C 259.660156 89.59375 248.261719 67.277344 235.101562 46.113281 C 230.691406 39.027344 226.085938 32.058594 221.25 25.257812 C 218.679688 21.632812 216.140625 17.488281 213.066406 14.257812 C 212.945312 14.125 212.839844 13.964844 212.726562 13.824219 C 209.367188 9.613281 201.648438 12.019531 200.605469 17.023438 C 198.859375 25.378906 197.117188 33.734375 195.371094 42.089844 C 194.953125 44.101562 194.535156 46.109375 194.113281 48.117188 C 193.363281 51.714844 192.613281 55.3125 191.863281 58.910156 C 187.421875 80.195312 182.980469 101.476562 178.539062 122.757812 C 172.285156 152.726562 166.03125 182.695312 159.78125 212.664062 C 154.371094 238.578125 148.964844 264.5 143.558594 290.414062 C 143.238281 291.925781 142.921875 293.433594 142.601562 294.941406 C 137.613281 271.039062 132.625 247.136719 127.636719 223.230469 C 121.382812 193.265625 115.132812 163.296875 108.878906 133.332031 C 103.714844 108.59375 98.550781 83.855469 93.390625 59.117188 C 93.144531 57.9375 92.898438 56.757812 92.652344 55.578125 C 91.722656 51.113281 90.871094 46.605469 90.011719 42.09375 C 88.445312 33.859375 86.855469 25.609375 84.722656 17.5625 C 84.675781 17.386719 84.644531 17.203125 84.609375 17.023438 C 83.5625 12.019531 75.84375 9.613281 72.484375 13.824219 C 65.78125 22.226562 59.691406 31.152344 53.871094 40.175781 C 40.863281 60.347656 29.558594 81.578125 20.355469 103.746094 C 9.5625 129.75 1.894531 157.539062 1.035156 185.804688 C 0.140625 215.230469 7.714844 244.859375 25.328125 268.742188 C 48.996094 300.84375 85.351562 320.152344 122.558594 332.433594 C 128.199219 334.296875 133.898438 335.988281 139.625 337.566406 C 140.503906 337.980469 141.503906 338.195312 142.609375 338.160156 C 143.703125 338.195312 144.691406 337.980469 145.566406 337.570312 C 184.664062 326.8125 224.746094 309.574219 252.039062 278.535156 C 272.320312 255.46875 283.082031 226.511719 284.15625 195.929688 C 285.152344 167.613281 278.476562 139.25 268.496094 112.910156 "/>
</g>
<g clip-path="url(#clip3)" clip-rule="nonzero">
<path style=" stroke:none;fill-rule:nonzero;fill:rgb(25.099182%,77.648926%,79.998779%);fill-opacity:1;" d="M 185.179688 32.695312 C 173.4375 22.234375 161.136719 12.261719 148.207031 3.296875 C 147.714844 2.957031 147.21875 2.621094 146.726562 2.289062 C 145.632812 1.386719 144.300781 0.835938 142.851562 0.824219 C 142.8125 0.824219 142.773438 0.824219 142.738281 0.820312 C 142.664062 0.824219 142.59375 0.824219 142.523438 0.828125 C 141.101562 0.847656 139.796875 1.386719 138.71875 2.265625 C 129.417969 8.464844 120.589844 15.484375 111.988281 22.597656 C 104.449219 28.835938 97.105469 35.332031 90.011719 42.09375 L 142.601562 294.941406 L 195.371094 42.089844 C 192.027344 38.902344 188.625 35.765625 185.179688 32.695312 "/>
</g>
<g clip-path="url(#clip4)" clip-rule="nonzero">
<path style=" stroke:none;fill-rule:nonzero;fill:rgb(13.729858%,12.159729%,11.369324%);fill-opacity:1;" d="M 93.390625 59.117188 C 101.039062 51.445312 109.003906 44.085938 117.246094 37.054688 C 120.789062 34.027344 124.386719 31.058594 128.027344 28.152344 C 128.824219 27.519531 129.625 26.882812 130.421875 26.257812 C 130.808594 25.957031 131.191406 25.65625 131.578125 25.355469 C 131.691406 25.269531 131.992188 25.03125 132.246094 24.835938 C 132.445312 24.683594 132.648438 24.523438 132.722656 24.46875 C 133.070312 24.203125 133.417969 23.933594 133.765625 23.671875 C 134.46875 23.140625 135.167969 22.605469 135.875 22.078125 C 138.136719 20.382812 140.433594 18.742188 142.742188 17.109375 C 143.839844 17.894531 144.933594 18.683594 146.023438 19.480469 C 147.199219 20.339844 148.371094 21.207031 149.539062 22.078125 C 150.199219 22.574219 150.859375 23.074219 151.515625 23.570312 C 151.804688 23.792969 152.789062 24.546875 153.222656 24.878906 C 153.679688 25.234375 154.554688 25.917969 154.84375 26.144531 C 155.691406 26.808594 156.539062 27.480469 157.382812 28.152344 C 159.15625 29.566406 160.914062 30.992188 162.664062 32.433594 C 172.796875 40.789062 182.578125 49.605469 191.863281 58.910156 C 192.613281 55.3125 193.363281 51.714844 194.113281 48.117188 C 194.535156 46.109375 194.953125 44.101562 195.371094 42.089844 C 192.027344 38.902344 188.625 35.765625 185.179688 32.695312 C 173.4375 22.234375 161.136719 12.261719 148.207031 3.296875 C 147.714844 2.957031 147.21875 2.621094 146.726562 2.289062 C 145.632812 1.386719 144.300781 0.835938 142.851562 0.824219 C 142.8125 0.824219 142.773438 0.824219 142.738281 0.820312 C 142.664062 0.824219 142.59375 0.824219 142.523438 0.828125 C 141.101562 0.847656 139.796875 1.386719 138.71875 2.265625 C 129.417969 8.464844 120.589844 15.484375 111.988281 22.597656 C 104.449219 28.835938 97.105469 35.332031 90.011719 42.09375 C 90.871094 46.605469 91.722656 51.113281 92.652344 55.578125 C 92.898438 56.757812 93.144531 57.9375 93.390625 59.117188 "/>
</g>
<g clip-path="url(#clip5)" clip-rule="nonzero">
<path style=" stroke:none;fill-rule:nonzero;fill:rgb(13.729858%,12.159729%,11.369324%);fill-opacity:1;" d="M 244.695312 261.125 C 236.746094 271.566406 227.730469 280.996094 217.988281 289.652344 C 216.742188 290.527344 215.460938 291.410156 214.109375 292.308594 C 196.886719 303.808594 177.917969 312.171875 158.3125 318.613281 C 156.234375 319.296875 154.144531 319.949219 152.050781 320.589844 C 152.28125 319.492188 152.511719 318.394531 152.738281 317.300781 C 153.824219 312.109375 154.90625 306.921875 155.988281 301.730469 C 161.179688 276.847656 166.371094 251.96875 171.5625 227.085938 C 177.816406 197.121094 184.070312 167.152344 190.324219 137.183594 C 194.878906 115.351562 199.4375 93.511719 203.992188 71.679688 C 204.84375 67.597656 205.695312 63.515625 206.546875 59.429688 C 206.90625 57.722656 207.257812 56.015625 207.617188 54.308594 C 208.867188 48.320312 210.117188 42.335938 211.363281 36.347656 C 213.832031 39.917969 216.25 43.527344 218.605469 47.167969 C 224.25 55.910156 229.585938 64.851562 234.574219 73.976562 C 237.488281 79.3125 240.28125 84.707031 242.945312 90.167969 C 244.320312 92.992188 245.660156 95.832031 246.964844 98.691406 C 247.609375 100.105469 248.242188 101.523438 248.871094 102.945312 C 249.164062 103.621094 249.457031 104.296875 249.75 104.972656 C 249.882812 105.28125 250.320312 106.304688 250.488281 106.699219 C 252.707031 112.015625 254.785156 117.390625 256.710938 122.820312 C 259.265625 130.019531 261.542969 137.316406 263.460938 144.710938 C 265.160156 151.285156 266.585938 157.929688 267.667969 164.632812 C 267.804688 165.492188 267.941406 166.355469 268.070312 167.21875 C 268.105469 167.472656 268.300781 168.925781 268.332031 169.117188 C 268.523438 170.628906 268.699219 172.140625 268.855469 173.65625 C 269.199219 177.023438 269.449219 180.398438 269.59375 183.78125 C 269.886719 190.617188 269.753906 197.472656 269.117188 204.289062 C 268.96875 205.84375 268.792969 207.390625 268.597656 208.941406 C 268.597656 208.945312 268.597656 208.953125 268.597656 208.960938 C 268.523438 209.4375 268.457031 209.914062 268.382812 210.390625 C 268.234375 211.34375 268.078125 212.292969 267.910156 213.242188 C 267.730469 214.273438 267.527344 215.300781 267.316406 216.328125 C 262.777344 232.414062 254.976562 247.621094 244.695312 261.125 Z M 27.242188 239.898438 C 22.875 231.367188 19.578125 222.492188 17.339844 213.425781 C 17.292969 213.175781 17.246094 212.921875 17.203125 212.675781 C 17.070312 211.914062 16.945312 211.152344 16.828125 210.390625 C 16.777344 210.066406 16.652344 209.191406 16.609375 208.910156 C 16.402344 207.277344 16.21875 205.640625 16.070312 204.003906 C 15.761719 200.644531 15.578125 197.277344 15.503906 193.90625 C 15.355469 187.050781 15.679688 180.1875 16.386719 173.367188 C 16.539062 171.867188 16.722656 170.371094 16.914062 168.875 C 16.96875 168.476562 17.0625 167.753906 17.101562 167.507812 C 17.242188 166.546875 17.390625 165.589844 17.542969 164.632812 C 18.101562 161.183594 18.75 157.75 19.476562 154.335938 C 21.664062 144.09375 24.578125 134.019531 28.03125 124.132812 C 29.046875 121.214844 30.105469 118.316406 31.210938 115.4375 C 32.332031 112.527344 33.5 109.632812 34.699219 106.753906 C 34.871094 106.359375 35.265625 105.421875 35.351562 105.226562 C 35.675781 104.464844 36.007812 103.707031 36.34375 102.945312 C 37.007812 101.441406 37.675781 99.941406 38.359375 98.441406 C 40.929688 92.816406 43.648438 87.257812 46.492188 81.765625 C 51.589844 71.925781 57.101562 62.300781 62.964844 52.898438 C 66.460938 47.300781 70.089844 41.777344 73.847656 36.351562 C 74.933594 41.554688 76.019531 46.761719 77.109375 51.96875 C 77.28125 52.800781 77.453125 53.628906 77.625 54.460938 C 78.835938 60.265625 80.050781 66.066406 81.257812 71.871094 C 85.066406 90.121094 88.875 108.367188 92.679688 126.613281 C 98.933594 156.582031 105.1875 186.546875 111.441406 216.515625 C 116.851562 242.433594 122.257812 268.351562 127.667969 294.269531 C 129.234375 301.800781 130.601562 309.445312 132.136719 317.042969 C 132.367188 318.195312 132.59375 319.347656 132.835938 320.492188 C 115.457031 315.148438 98.5625 308.445312 82.714844 299.453125 C 76.964844 296.191406 71.589844 292.8125 66.5 289.15625 C 50.648438 274.996094 36.882812 258.742188 27.242188 239.898438 Z M 268.496094 112.910156 C 259.660156 89.59375 248.261719 67.277344 235.101562 46.113281 C 230.691406 39.027344 226.085938 32.058594 221.25 25.257812 C 218.679688 21.632812 216.140625 17.488281 213.066406 14.257812 C 212.945312 14.125 212.839844 13.964844 212.726562 13.824219 C 209.367188 9.613281 201.648438 12.019531 200.605469 17.023438 C 198.859375 25.378906 197.117188 33.734375 195.371094 42.089844 C 194.953125 44.101562 194.535156 46.109375 194.113281 48.117188 C 193.363281 51.714844 192.613281 55.3125 191.863281 58.910156 C 187.421875 80.195312 182.980469 101.476562 178.539062 122.757812 C 172.285156 152.726562 166.03125 182.695312 159.78125 212.664062 C 154.371094 238.578125 148.964844 264.5 143.558594 290.414062 C 143.238281 291.925781 142.921875 293.433594 142.601562 294.941406 C 137.613281 271.039062 132.625 247.136719 127.636719 223.230469 C 121.382812 193.265625 115.132812 163.296875 108.878906 133.332031 C 103.714844 108.59375 98.550781 83.855469 93.390625 59.117188 C 93.144531 57.9375 92.898438 56.757812 92.652344 55.578125 C 91.722656 51.113281 90.871094 46.605469 90.011719 42.09375 C 88.445312 33.859375 86.855469 25.609375 84.722656 17.5625 C 84.675781 17.386719 84.644531 17.203125 84.609375 17.023438 C 83.5625 12.019531 75.84375 9.613281 72.484375 13.824219 C 65.78125 22.226562 59.691406 31.152344 53.871094 40.175781 C 40.863281 60.347656 29.558594 81.578125 20.355469 103.746094 C 9.5625 129.75 1.894531 157.539062 1.035156 185.804688 C 0.140625 215.230469 7.714844 244.859375 25.328125 268.742188 C 48.996094 300.84375 85.351562 320.152344 122.558594 332.433594 C 128.199219 334.296875 133.898438 335.988281 139.625 337.566406 C 140.503906 337.980469 141.503906 338.195312 142.609375 338.160156 C 143.703125 338.195312 144.691406 337.980469 145.566406 337.570312 C 184.664062 326.8125 224.746094 309.574219 252.039062 278.535156 C 272.320312 255.46875 283.082031 226.511719 284.15625 195.929688 C 285.152344 167.613281 278.476562 139.25 268.496094 112.910156 "/>
</g>
</g>
</defs>
<g id="surface1">
<use xlink:href="#surface5" transform="matrix(1,0,0,1,45,18)" mask="url(#mask0)"/>
</g>
</svg>
